<svg xmlns="http://www.w3.org/2000/svg" width="20" height="20" viewBox="0 0 20 20">
    <g fill="none" fill-rule="evenodd" stroke="#FFCF03">
        <path d="M10 9.333c1.105 0 2-1.6 2-3.2S11.105 4 10 4s-2 .533-2 2.133.895 3.2 2 3.2zM15.5 11c.828 0 1.5-1.2 1.5-2.4S16.328 7 15.5 7 14 7.4 14 8.6c0 1.2.672 2.4 1.5 2.4zM4.5 11C5.328 11 6 9.8 6 8.6S5.328 7 4.5 7 3 7.4 3 8.6c0 1.2.672 2.4 1.5 2.4zM4.5 16.5h11v-2.452a1.75 1.75 0 0 0-1.094-1.622l-1.989-.805a1.614 1.614 0 0 0-1.334.056 2.399 2.399 0 0 1-2.166 0 1.614 1.614 0 0 0-1.334-.056l-1.99.805A1.75 1.75 0 0 0 4.5 14.048V16.5zM17 12l.986.42c.611.26 1.014.905 1.014 1.624V15h-2M3 12l-.986.42C1.403 12.68 1 13.325 1 14.044V15h2"/>
    </g>
</svg>
