<svg xmlns="http://www.w3.org/2000/svg" width="28.125" height="28.125" viewBox="0 0 28.125 28.125">
    <path fill="#000" fill-rule="nonzero" d="M13.707 0c7.558 0 13.707 6.15 13.707 13.711 0 2.82-1.366 6.417-4.416 8.098-2.595 1.421-5.616 1.116-8.676-.927-1.45-.967-2.483-2.027-3.315-2.88a32.32 32.32 0 0 0-.72-.723l-.15-.15a63.843 63.843 0 0 1-2.756-3.04c-1.19-1.395-1.731-3.116-1.488-4.722.187-1.237.828-2.259 1.806-2.88.04-.026.079-.055.116-.084a.782.782 0 0 1 .155-.101c.409-.169.852-.24 1.32-.316.267-.041.532-.085.81-.147.432 0 1.394 1.662 1.598 2.975.083.531.015.887-.182.95-.13.04-.351.088-.603.143-.726.157-1.302.292-1.556.485a.653.653 0 0 0-.251.465c-.036.317.105.717.36 1.017.57.67 1.321 1.387 2.046 2.08.316.301.626.597.913.882l.155.154c.278.281.568.584.863.894.699.732 1.42 1.489 2.096 2.065.48.407 1.204.483 1.483.108.192-.255.33-.834.488-1.565.054-.248.1-.465.14-.593.058-.18.33-.218.549-.218.98 0 2.752.766 3.267 1.413.079.098.119.188.107.238-.062.261-.105.528-.147.797-.075.467-.146.91-.316 1.319-.019.047-.059.099-.101.154a1.65 1.65 0 0 0-.084.117 3.809 3.809 0 0 1-1.285 1.233l-.679.404.79-.007a5.492 5.492 0 0 0 2.623-.675c2.206-1.218 3.747-4.083 3.747-6.966 0-6.846-5.568-12.417-12.414-12.417S1.291 6.861 1.291 13.708c0 6.845 5.57 12.413 12.416 12.413a.648.648 0 0 1 0 1.293C6.15 27.414 0 21.265 0 13.708 0 6.149 6.15 0 13.707 0zm6.442 13.639a6.124 6.124 0 0 0-1.8-4.144 6.122 6.122 0 0 0-4.146-1.804v-.992a7.164 7.164 0 0 1 6.94 6.939h-.994zm3.447 0h-.994c-.113-4.58-3.817-8.287-8.398-8.398v-.993c5.129.11 9.28 4.262 9.392 9.392z"/>
</svg>
